<?xml version="1.0" standalone="no"?>
<!DOCTYPE svg PUBLIC "-//W3C//DTD SVG 20010904//EN"
 "http://www.w3.org/TR/2001/REC-SVG-20010904/DTD/svg10.dtd">
<svg version="1.0" xmlns="http://www.w3.org/2000/svg"
 width="260.000000pt" height="260.000000pt" viewBox="0 0 260.000000 260.000000"
 preserveAspectRatio="xMidYMid meet">
<metadata>
Created by potrace 1.11, written by Peter Selinger 2001-2013
</metadata>
<g transform="translate(0.000000,260.000000) scale(0.100000,-0.100000)"
fill="#000000" stroke="none">
<path d="M848 2548 c-108 -163 -128 -211 -128 -312 0 -102 57 -184 139 -202
79 -17 106 -30 109 -51 6 -41 -65 -59 -419 -108 -52 -7 -111 -21 -130 -30 -19
-10 -66 -28 -106 -40 -86 -27 -206 -104 -242 -156 -17 -25 -34 -38 -48 -39
l-23 0 0 -220 c0 -211 1 -220 19 -220 22 0 28 -22 57 -210 9 -58 31 -154 50
-213 19 -60 34 -114 34 -119 0 -6 23 -61 51 -122 83 -180 157 -283 262 -363
51 -39 79 -52 162 -74 85 -22 100 -29 103 -47 3 -22 4 -22 282 -22 l279 0 3
22 c2 17 20 30 74 53 118 50 228 142 361 302 50 60 94 83 160 83 81 0 298 61
385 109 121 66 211 182 243 311 35 141 35 140 55 140 19 0 20 8 20 160 0 152
-1 160 -20 160 -14 0 -22 11 -30 43 -31 118 -44 151 -74 190 -36 47 -98 87
-136 87 -42 0 -123 -44 -179 -98 -96 -92 -122 -81 -131 56 -6 103 -19 129 -88
173 -114 73 -158 87 -379 124 -116 19 -234 35 -263 35 -28 0 -63 6 -78 14 -36
19 -138 127 -186 198 -35 52 -38 61 -34 111 3 42 12 63 37 94 25 31 32 48 29
73 -3 35 -15 45 -61 55 -28 6 -29 8 -25 55 l3 50 -51 0 c-50 0 -51 -1 -86 -52z
m282 -713 c15 -8 37 -26 48 -40 11 -14 24 -25 28 -25 5 0 29 14 54 30 25 16
53 30 63 30 33 0 167 -62 178 -82 12 -23 -1 -71 -28 -100 -9 -10 -41 -26 -71
-34 -30 -9 -78 -27 -106 -40 -57 -27 -114 -31 -122 -10 -3 7 6 30 20 51 29 42
33 91 12 120 -13 18 -15 17 -67 -8 -48 -25 -63 -27 -163 -26 -61 0 -149 4
-196 10 -243 26 -292 21 -298 -32 -5 -44 24 -59 139 -69 128 -11 205 -33 220
-62 16 -29 -7 -45 -79 -54 -68 -8 -238 1 -276 15 -15 6 -68 11 -117 11 -134 0
-175 28 -143 96 22 46 56 71 123 90 31 9 76 27 101 39 25 12 75 25 114 29 37
4 96 13 131 21 35 8 123 22 195 30 73 8 135 17 138 20 11 10 74 5 102 -10z
m603 -117 c17 -22 19 -33 11 -55 -10 -31 -75 -69 -99 -59 -18 7 -21 96 -4 127
15 29 66 22 92 -13z m-27 -359 c17 -19 19 -36 17 -161 -2 -78 -10 -184 -18
-237 -16 -99 -85 -317 -115 -361 -10 -14 -28 -45 -40 -70 -60 -118 -200 -244
-340 -307 l-85 -38 -155 0 c-152 1 -156 1 -231 33 -92 40 -118 65 -163 162
-19 42 -44 87 -55 102 -11 14 -27 51 -36 83 -8 31 -26 85 -39 119 -26 66 -46
193 -67 424 -11 128 -11 135 8 160 19 25 26 27 79 24 33 -1 212 -4 399 -5 370
-2 403 1 640 62 140 36 176 38 201 10z m583 -40 c79 -74 80 -282 3 -443 -35
-73 -45 -85 -102 -124 -79 -53 -160 -78 -209 -66 -61 15 -61 38 -7 236 26 95
58 191 71 213 37 62 177 205 201 205 11 0 31 -10 43 -21z"/>
</g>
</svg>
